<svg width="67" height="42" viewBox="0 0 67 42" fill="none" xmlns="http://www.w3.org/2000/svg">
<path d="M39.1638 8.20496C39.4571 8.68168 39.5278 9.33914 39.2371 9.81325C38.6896 10.8007 37.4454 11.0182 36.4213 10.9474C35.6905 10.8741 34.9597 10.6174 34.5196 9.9966C34.1555 9.48583 34.2289 8.64501 34.5563 8.16829C35.1771 7.36414 36.0912 7.07077 37.1888 7.18079C37.9222 7.36152 38.6897 7.54488 39.1638 8.20496ZM57.2636 14.3447C56.4594 14.6381 55.912 15.2589 55.5086 15.9897C55.0685 17.3413 54.3011 18.8055 54.8511 20.3038C55.1052 20.7046 55.5819 20.8879 56.056 20.8513C56.9728 20.6312 57.6643 19.8271 57.9577 19.0596C58.2851 17.7421 59.2019 16.4271 58.6859 14.9655C58.3951 14.5281 57.8844 14.2374 57.2636 14.3447ZM25.1632 14.0173C24.1024 14.8215 23.7357 16.139 23.3349 17.3439C24.2858 17.5273 25.2366 17.3073 26.0041 16.8698C26.8108 16.249 27.2483 15.2982 27.0649 14.3474C26.7689 13.5773 25.7474 13.7973 25.1632 14.0173ZM30.1348 14.274C30.5015 15.1148 30.1715 16.1023 29.7314 16.7965C28.1965 18.5881 25.5273 18.9182 23.0782 18.6981C22.9708 19.2089 23.0782 19.7223 23.4083 20.0864C24.5791 21.0372 26.3682 20.7439 27.759 20.4164C29.1866 20.0497 30.5749 19.4656 31.8164 18.6222L33.4981 12.8465C34.9623 12.7731 36.5732 12.8098 38.1082 12.8098C37.5214 14.9655 36.9006 17.1606 36.3139 19.3163C36.3139 19.6097 36.3506 19.8664 36.4946 20.0838C37.1547 20.7046 38.0662 20.1938 38.6896 19.903C39.093 19.683 39.4938 19.4263 39.8238 19.0989C39.6772 16.6865 41.2854 14.7115 43.1871 13.5773C45.0154 12.5191 47.9046 12.1523 49.7669 13.3572C49.6595 14.0147 49.4369 14.6381 49.2562 15.2589C48.5961 14.6722 47.7212 14.0881 46.8071 14.4914C45.4188 15.1122 44.9787 16.6472 44.722 18.0381C44.5754 18.9155 44.5387 20.0471 45.3795 20.5238C47.0978 21.218 48.6694 20.0104 49.8743 18.9522C49.9136 16.3171 51.7053 14.2347 53.9684 13.1372C55.4693 12.5164 57.515 12.1864 58.9426 13.2106C59.1993 13.4306 59.4167 13.6873 59.6 13.9414L59.9301 12.9172C61.3183 12.8805 62.7459 12.9172 64.0608 12.9539L62.1932 19.5704C62.1565 19.8638 62.2692 20.0812 62.4132 20.3012C63.1807 20.8853 64.1315 20.3379 64.8283 19.9711C65.009 20.4112 65.1583 20.8853 65.1924 21.3594C63.55 22.4569 61.2476 23.7352 59.0866 22.7136C58.6492 22.4229 58.1699 21.9461 57.9917 21.4354C56.5642 22.787 54.5525 23.4078 52.6535 22.787C51.6686 22.3495 50.7885 21.6554 50.2777 20.5919C48.6354 21.9802 46.7311 23.0437 44.4653 22.9703L44.4287 23.0044C42.7837 22.8603 41.1388 22.1269 40.3713 20.7019C38.5063 22.2002 36.2772 23.2244 33.7888 22.8603C32.838 22.6403 31.8505 21.7261 31.7038 20.7019C31.7405 20.6653 31.6671 20.6286 31.6331 20.5919C28.3798 22.3102 23.8824 24.0312 20.2624 21.9095C19.1649 21.1787 18.3241 20.0445 18.2874 18.6536C18.2874 16.2412 20.155 13.9754 22.2741 13.1687C24.5032 12.3278 27.8664 11.9611 29.7681 13.682L30.1348 14.274ZM7.79686 23.2296C6.37193 22.8263 4.68768 22.0221 3.22607 22.7896C2.93532 22.9729 2.75197 23.2637 2.71268 23.6304C2.71268 24.0338 3.11606 24.3245 3.40681 24.5079C5.08844 25.202 6.91676 24.3979 8.05094 23.337L7.79686 23.2296ZM22.3474 1.98659C21.3233 2.05993 20.5951 2.97409 20.1157 3.74156C18.8742 6.154 18.2534 8.78646 17.6326 11.4556C20.3017 10.7641 22.7482 8.82575 23.7724 6.15661C24.2491 5.02505 24.5398 3.30413 23.555 2.35592C23.2249 1.98659 22.7875 2.02326 22.3474 1.98659ZM25.784 2.09922C26.6982 3.96421 25.8941 6.11994 25.0899 7.76752C23.4083 10.6541 20.5191 12.6657 17.1925 13.1765C16.1684 16.3957 15.4742 19.7223 13.5752 22.4988C19.3483 24.2931 25.2733 25.608 31.5624 26.0455C39.1297 26.5955 46.7704 26.3755 54.4137 25.8988C58.2877 25.5347 62.0884 24.8379 65.7817 23.9971L66.1484 25.422L66.0044 25.5321C56.8261 27.9078 47.1031 29.4061 37.2307 29.4454V29.4087C30.4282 29.6287 24.0684 28.1645 17.8893 26.5196C15.8776 25.9328 13.9393 25.2413 11.9643 24.5446C9.40515 26.4095 5.64113 27.4678 2.53456 25.9695C1.54706 25.4587 0.816255 24.6179 0.706242 23.4837C0.666951 22.6403 1.07033 21.9121 1.76708 21.3987C3.96211 20.0445 6.95867 20.812 9.26371 21.362C9.70114 21.0346 9.73781 20.4112 9.99189 19.9738C10.7987 17.8521 11.5661 15.6597 12.0769 13.3546C10.7594 13.2813 9.59113 12.8805 8.42027 12.4771C8.49361 12.0397 8.67697 11.5997 8.89438 11.1989C9.99189 11.4556 11.1968 11.8197 12.4436 11.783C13.6145 7.8723 14.2353 3.26484 18.3293 1.10648C20.0817 -0.0250859 22.6749 -0.499191 24.5398 0.705717C25.0532 1.14839 25.4907 1.51248 25.784 2.09922ZM12.4253 34.6474C12.5877 33.9297 12.606 33.3011 11.7547 33.3011C10.7515 33.3011 10.466 34.6579 10.1464 36.151C9.63828 38.5503 9.77972 38.9773 10.6939 38.9773C10.9611 38.9773 11.2623 38.9118 11.5242 38.8279L11.8857 37.1227H11.0161L11.2649 35.9493H13.7402L12.9125 39.8364C12.4593 39.9228 11.3304 40.0931 10.6913 40.0931C7.99069 40.0931 7.91735 38.9773 8.53814 36.0671C8.952 34.1236 9.4654 32.1512 12.0926 32.1512C13.6669 32.1512 14.4553 33.0339 14.0152 34.6474H12.4253ZM18.9815 37.5156C19.398 35.7973 19.453 34.4877 17.4387 34.4877C15.4664 34.4877 14.987 35.7423 14.6753 37.2066C14.3191 38.8856 14.3217 40.0669 16.2548 40.0669C16.9515 40.0669 17.5252 39.8757 17.9443 39.5457C18.3765 39.2156 18.6698 38.7389 18.8139 38.1522H17.2947C17.2004 38.5974 16.9856 39.1082 16.4565 39.1082C15.8016 39.1082 15.985 38.1522 16.1186 37.5156H18.9815ZM16.2967 36.6748C16.3936 36.2191 16.5534 35.4123 17.2423 35.4123C17.9521 35.4123 17.774 36.1536 17.664 36.6748H16.2967ZM21.5747 40.0669C23.5052 40.0669 24.0107 38.8856 24.3643 37.2092C24.676 35.745 24.7337 34.4903 22.7587 34.4903C20.7837 34.4903 20.3069 35.745 19.9979 37.2092C19.6364 38.8856 19.6416 40.0669 21.5747 40.0669ZM21.7764 39.1082C21.2237 39.1082 21.1609 38.7572 21.5092 37.1254C21.7476 36.0121 21.9179 35.449 22.5544 35.449C23.1909 35.449 23.1228 36.0121 22.887 37.1254C22.5386 38.7598 22.3291 39.1082 21.7764 39.1082ZM26.3891 38.2412C26.3262 38.4848 26.287 38.7206 26.3262 38.8882C26.3734 39.0585 26.5148 39.1423 26.8134 39.1423C27.1409 39.1449 27.4211 38.9118 27.4814 38.5896C27.725 37.4502 25.0349 37.7069 25.3964 35.999C25.6452 34.8387 26.8685 34.4877 27.8324 34.4877C28.8513 34.4877 29.6738 34.9749 29.3411 36.1352H27.8717C27.9503 35.7633 27.9555 35.5406 27.8691 35.4437C27.7931 35.3468 27.67 35.3259 27.5154 35.3259C27.188 35.3259 26.9628 35.538 26.8842 35.8995C26.7034 36.7508 29.349 36.7089 28.9823 38.4272C28.7832 39.3623 27.8691 40.0643 26.6249 40.0643C25.3178 40.0643 24.5163 39.7342 24.9196 38.236L26.3891 38.2412ZM30.5225 40.0093L30.216 34.5951H31.7064L31.6698 38.3722H31.6907L33.3016 34.5951H34.7501L31.1014 42H29.5271L30.5225 40.0093ZM35.8345 38.2412C35.7717 38.4848 35.7324 38.7206 35.7717 38.8882C35.8214 39.0585 35.9603 39.1423 36.2589 39.1423C36.5863 39.1449 36.8666 38.9118 36.9268 38.5896C37.1678 37.4502 34.4751 37.7069 34.8392 35.999C35.0854 34.8387 36.3113 34.4877 37.2752 34.4877C38.2941 34.4877 39.1166 34.9749 38.7866 36.1352H37.3171C37.3957 35.7633 37.4035 35.5406 37.3145 35.4437C37.2411 35.3468 37.118 35.3259 36.9635 35.3259C36.6334 35.3259 36.4082 35.538 36.3322 35.8995C36.1515 36.7508 38.797 36.7089 38.4303 38.4272C38.2313 39.3623 37.3145 40.0643 36.0729 40.0643C34.7632 40.0643 33.9617 39.7342 34.3651 38.236L35.8345 38.2412ZM39.554 34.5951H40.1591L40.3425 33.7438L41.9796 33.0732L41.6574 34.5951H42.4327L42.2363 35.5223H41.4583L40.8506 38.3827C40.7642 38.786 40.6987 39.0506 41.1859 39.0506C41.2828 39.0506 41.3771 39.0506 41.4583 39.027L41.2619 39.9569C41.0523 39.9779 40.8349 40.0093 40.4734 40.0093C39.1795 40.0093 39.1899 39.1449 39.2633 38.8175L39.9627 35.5249H39.355L39.554 34.5951ZM46.7442 37.5156C47.1633 35.7973 47.2209 34.4877 45.204 34.4877C43.2316 34.4877 42.7497 35.7423 42.4406 37.2066C42.0843 38.8856 42.0843 40.0669 44.0174 40.0669C44.7142 40.0669 45.2878 39.8757 45.7069 39.5457C46.1391 39.2156 46.4325 38.7389 46.5766 38.1522H45.0599C44.9656 38.5974 44.7509 39.1082 44.2217 39.1082C43.5643 39.1082 43.7476 38.1522 43.8812 37.5156H46.7442ZM44.062 36.6748C44.1589 36.2191 44.3187 35.4123 45.0076 35.4123C45.7174 35.4123 45.5367 36.1536 45.4293 36.6748H44.062ZM49.6988 35.1373H49.7198C50.1232 34.6579 50.5606 34.4877 51.1264 34.4877C51.6607 34.4877 52.0301 34.7444 52.1846 35.1687C52.6378 34.6998 53.1092 34.4877 53.7248 34.4877C54.4373 34.4877 54.9716 34.912 54.8118 35.6585L53.8977 39.9621H52.4046L53.1878 36.2636C53.29 35.7869 53.2847 35.4123 52.8054 35.4123C52.3261 35.4123 52.161 35.7842 52.0615 36.2636L51.2757 39.9621H49.8036L50.5894 36.2636C50.6916 35.7869 50.6863 35.4149 50.2044 35.4149C49.725 35.4149 49.56 35.7869 49.4579 36.2636L48.6747 39.9621H47.179L48.3211 34.5951H49.8167L49.6988 35.1373ZM56.517 38.2412C56.4516 38.4848 56.4149 38.7206 56.4516 38.8882C56.5013 39.0585 56.6402 39.1423 56.9361 39.1423C57.2321 39.1423 57.5281 38.9537 57.6067 38.5896C57.8477 37.4502 55.1602 37.7069 55.5217 35.999C55.7705 34.8387 56.9938 34.4877 57.9577 34.4877C58.974 34.4877 59.7991 34.9749 59.4664 36.1352H57.997C58.0756 35.7633 58.0808 35.5406 57.9917 35.4437C57.9158 35.3468 57.7953 35.3259 57.6407 35.3259C57.3133 35.3259 57.0881 35.538 57.0121 35.8995C56.8314 36.7508 59.4769 36.7089 59.1128 38.4272C58.9111 39.3623 57.9944 40.0643 56.7528 40.0643C55.4431 40.0643 54.6442 39.7342 55.045 38.236L56.517 38.2412Z" fill="#AFB0AF"/>
</svg>
