<svg width="100" height="40" viewBox="0 0 100 40" fill="none" xmlns="http://www.w3.org/2000/svg">
<path d="M0 0V40H100V0H0ZM22.13 26.2942C22.0304 26.6749 21.964 26.7246 21.964 26.7246H12.7086V26.2942C13.042 26.2873 13.3747 26.2597 13.7047 26.2115C14.045 26.137 14.1944 25.8887 14.2608 25.3838C14.3272 24.879 14.3438 23.3064 14.3438 21.7174V18.2578C14.3438 15.6342 14.3438 15.2617 14.294 14.7072C14.2442 14.1527 14.1446 13.8796 13.5801 13.7223C13.3038 13.7037 13.0264 13.7037 12.7501 13.7223V13.2423H16.5352V14.6824C16.5352 14.6824 16.5352 15.6094 16.5352 18.233V21.6925C16.5352 24.0927 16.5352 25.0859 16.8839 25.4004C17.2325 25.7149 17.9381 25.7728 19.2828 25.7728C20.6275 25.7728 20.943 25.7149 21.3497 25.3011C21.7331 24.8802 21.9842 24.3565 22.0719 23.7947H22.6944C22.6944 23.7947 22.2711 25.7894 22.13 26.2942ZM32.9792 26.2942C32.8796 26.6749 32.8131 26.7246 32.8131 26.7246H23.5577V26.2942C23.8884 26.2877 24.2184 26.2601 24.5455 26.2115C24.8942 26.137 25.0436 25.8887 25.11 25.3838C25.1764 24.879 25.193 23.3064 25.193 21.7174V18.2578C25.193 15.6342 25.193 15.2617 25.1515 14.7072C25.11 14.1527 24.9938 13.8796 24.4293 13.7223C24.1529 13.7037 23.8756 13.7037 23.5992 13.7223V13.2423H27.3927V14.6824C27.3927 14.6824 27.3927 15.6094 27.3927 18.233V21.6925C27.3927 24.0927 27.3927 25.0859 27.7413 25.4004C28.09 25.7149 28.7955 25.7728 30.1403 25.7728C31.485 25.7728 31.8004 25.7149 32.2072 25.3011C32.5905 24.8802 32.8416 24.3565 32.9294 23.7947H33.5519C33.5519 23.7947 33.1203 25.7894 32.9792 26.2942ZM41.28 26.9563C36.4406 26.9563 34.5065 23.1988 34.5065 19.9876C34.5065 16.7763 36.5402 13.0188 41.446 13.0188C45.7707 13.0188 48.2859 15.7252 48.2859 19.6814C48.2859 23.6375 45.6545 26.9563 41.2468 26.9563H41.28ZM61.7 13.714C60.9526 13.714 60.2546 14.0867 59.8406 14.7072C58.6272 16.5956 57.5188 18.549 56.5203 20.5587C56.3106 21.1102 56.2201 21.6996 56.2547 22.2884V23.6872C56.2547 23.9603 56.2547 24.5893 56.2547 25.3424C56.2547 25.839 56.4539 26.2197 56.9768 26.2859C57.2176 26.2859 57.8069 26.3522 58.0559 26.3522V26.7825H52.2952V26.3522C52.6613 26.3492 53.0271 26.3271 53.3909 26.2859C53.5735 26.2859 53.9719 26.1701 54.03 25.3424C54.0882 24.5148 54.0882 23.9851 54.0882 23.6872V22.2553C54.1163 21.6278 53.982 21.0035 53.698 20.4428C53.5735 20.1697 51.2078 15.9983 50.6433 15.1045C50.3445 14.6223 49.9419 14.2124 49.4646 13.9044C49.1491 13.7696 48.8115 13.6939 48.4685 13.6809V13.2423H52.0877C52.2539 13.6858 52.4451 14.1196 52.6604 14.5417C52.9094 15.0548 55.2669 19.4579 55.5408 19.9379C55.5408 19.9379 57.9729 15.3362 59.0686 13.2423H61.6751L61.7 13.714ZM74.2592 24.8293C73.4291 25.6569 71.8353 26.7246 68.6395 26.7246H61.9407V26.2942C63.0945 26.2528 63.6009 26.2942 63.6756 25.3259C63.7586 24.5893 63.7337 22.6029 63.7337 21.7174V18.2578C63.7337 15.6342 63.7337 15.27 63.7337 14.7072C63.7337 14.1444 63.5594 13.8796 62.9949 13.7223C62.6909 13.7034 62.3859 13.7034 62.0818 13.7223V13.2423H67.5604C69.7186 13.2423 72.599 13.2423 74.4833 15.2038C75.6055 16.4173 76.2021 18.0234 76.1434 19.6731C76.2049 21.5697 75.5299 23.4167 74.2592 24.8293ZM76.9818 16.1721L76.5751 15.8411C77.1306 14.8423 77.1306 13.6286 76.5751 12.6298V12.5719C77.0661 12.593 77.5532 12.6679 78.0277 12.7954C78.1792 12.8363 78.3244 12.8976 78.4594 12.9774C78.4447 14.2034 77.9074 15.3651 76.9818 16.1721ZM83.4482 13.0188C84.3314 13.0284 85.2109 13.1339 86.0712 13.3333C86.2289 13.3333 86.3202 13.3913 86.3202 13.5154C86.3202 13.6396 86.2372 14.7486 86.2372 16.0894H85.8056C85.3822 14.6162 85.1 13.8216 83.2655 13.8216C81.788 13.8216 80.9828 14.7238 80.9828 15.7169C80.9828 16.7101 81.7133 17.4467 83.0497 18.4399L83.8798 19.0358C85.8305 20.4924 86.644 21.4111 86.644 23.0995C86.6772 25.3259 85.0419 26.9315 82.2528 26.9315C81.1461 26.9454 80.0462 26.7575 79.0072 26.377C78.9537 26.2229 78.9339 26.0593 78.9491 25.897C78.9491 25.6792 78.9535 25.4328 78.9605 25.1793L78.9774 24.6689C79.0031 23.9926 79.0385 23.3669 79.0487 23.1988H79.5053C79.5717 23.4885 79.6464 23.9106 79.7792 24.3575C80.1282 25.5046 81.2492 26.2394 82.4438 26.1039C83.8964 26.1039 84.8842 25.3838 84.8842 23.9603C84.8842 22.9092 84.1786 22.305 82.9169 21.3449L82.0868 20.7242C80.4267 19.4744 79.2978 18.2413 79.2978 16.5032C79.2978 14.5582 80.8583 13.0188 83.4482 13.0188ZM67.1869 14.0699C71.055 14.0699 73.8192 15.957 73.8607 20.3269C73.8607 24.1424 72.1341 26.0542 68.4071 26.0542C67.6536 26.1485 66.8926 25.9499 66.2821 25.4997C66.033 25.2266 65.9251 24.8458 65.9251 23.0168V14.5665C65.9334 14.3679 65.9749 14.2686 66.1326 14.1941C66.4771 14.1072 66.8315 14.0655 67.1869 14.0699ZM40.9397 13.8465C43.737 13.8465 45.8122 16.3542 45.8122 20.3186C45.8122 24.0844 44.2849 26.0708 41.7282 26.0708C38.5988 26.0708 36.8473 22.8761 36.8473 19.4496C36.8473 15.4107 38.8644 13.8465 40.9397 13.8465Z" fill="#AFB0AF"/>
</svg>
