<svg width="121" height="40" viewBox="0 0 121 40" fill="none" xmlns="http://www.w3.org/2000/svg">
<path d="M20.2396 27.7884C17.3847 25.3159 17.1215 23.7017 17.1215 23.7017C16.7527 24.1296 16.4397 24.6034 16.1901 25.1116C13.5984 20.7797 18.0934 16.0596 18.0934 16.0596C14.6438 18.0143 12.5711 21.7556 12.7278 25.745C12.7364 27.3582 13.4293 28.8905 14.631 29.9543C14.7439 28.9958 14.9751 28.0554 15.3195 27.1549C16.5748 29.7091 19.369 30.976 20.2194 35.737C20.4889 37.0506 20.4402 38.4104 20.0777 39.701H21.333C22.8527 39.7097 24.3682 39.5382 25.8482 39.1902C26.4354 32.9784 22.4264 29.7295 20.2396 27.7884Z" fill="#AFB0AF"/>
<path d="M4.60227 21.8072C5.75491 19.4315 7.47661 17.3717 9.61702 15.8077C8.66453 15.3954 7.60257 15.3017 6.59159 15.5406C8.83078 12.8037 11.9076 10.8637 15.357 10.0137L12.3523 2.92529C5.4496 6.0139 0.968251 12.7789 0.851562 20.2868C0.996586 28.4652 6.26405 35.6885 14.0516 38.388C8.12186 34.9498 4.51306 28.6175 4.60227 21.8072Z" fill="#AFB0AF"/>
<path d="M119.957 13.9346C119.957 13.5764 119.671 13.4331 119.098 13.4331H118.214V15.2241H118.596V14.4719H118.954L119.551 15.2241H120.005L119.336 14.4719C119.695 14.4719 119.957 14.257 119.957 13.9346ZM118.596 14.1495V13.7018H119.074C119.265 13.7018 119.504 13.7018 119.504 13.8988C119.504 14.0958 119.289 14.1495 119.05 14.1495H118.596Z" fill="#AFB0AF"/>
<path d="M25.916 4.23888C27.2036 4.19359 28.2939 3.0974 28.5438 1.59683C26.8506 0.851203 25.0723 0.413518 23.2691 0.298584C23.2691 0.526347 23.2691 0.845215 23.2691 1.02742C23.2584 2.77971 24.4405 4.21389 25.916 4.23888Z" fill="#AFB0AF"/>
<path d="M27.9474 13.4187C28.7449 13.4554 29.4896 12.9548 29.862 12.1315L28.015 11.3698C27.3707 11.145 26.7165 10.9608 26.0553 10.8181C25.4471 12.3942 26.8211 13.4187 27.9474 13.4187Z" fill="#AFB0AF"/>
<path d="M17.9756 4.23888C19.4564 4.21389 20.6427 2.76951 20.6321 1.00465C20.6321 0.822438 20.6321 0.526347 20.6321 0.298584C18.8278 0.433036 17.0502 0.885904 15.3574 1.64238C15.6023 3.13886 16.6964 4.22383 17.9756 4.23888Z" fill="#AFB0AF"/>
<path d="M112.462 18.8366C110.003 18.0205 107.208 17.6648 107.208 16.1792C107.208 14.6936 108.763 14.589 110.045 14.589C111.703 14.6399 113.33 15.0467 114.815 15.7817V12.9151C112.981 12.3733 111.076 12.1053 109.162 12.12C103.993 12.12 101.072 13.9403 101.072 17.1836C101.072 19.7991 103.068 21.2219 105.274 21.9752C108.112 22.9168 110.78 23.2097 110.78 24.8627C110.78 26.5157 108.805 26.6203 107.334 26.6203C105.22 26.7125 103.117 26.2735 101.219 25.344V28.2524C103.416 28.8607 105.684 29.1773 107.964 29.194C115.425 29.194 116.896 25.8671 116.896 23.8374C116.896 21.1592 115.488 19.8409 112.462 18.8366Z" fill="#AFB0AF"/>
<path d="M31.0525 2.92529L27.9951 10.0078C29.7998 10.3806 33.1757 11.7266 32.6661 12.555C32.4326 12.9692 31.923 13.3419 32.199 13.4662L39.333 16.469C39.4609 16.548 39.5141 16.7038 39.4604 16.8418C39.0619 17.4295 38.4705 17.8677 37.7831 18.0843C37.5411 19.2642 36.7589 20.2713 35.6598 20.8179C35.2227 19.553 33.9918 18.7134 32.6237 18.747C31.8068 18.696 31.0027 18.9644 30.3891 19.4929C29.7756 20.0214 29.4031 20.7665 29.3539 21.5634C29.4565 23.2148 30.9091 24.4742 32.6024 24.3799C33.2591 24.3316 33.8799 24.0689 34.3647 23.6343H34.1736C33.3067 23.0475 32.3229 22.6453 31.2861 22.4539C32.1325 22.2739 33.0087 22.2739 33.8551 22.4539C34.6943 22.7724 35.5874 22.934 36.4879 22.9302C37.2599 22.8936 38.0204 22.7327 38.7385 22.4539C38.7877 23.0287 38.4779 23.576 37.9529 23.8414C37.0153 24.4298 35.8118 24.4298 34.8743 23.8414C34.9317 25.3688 34.2373 26.831 33.0058 27.7762C32.0358 26.1876 30.1037 25.4186 28.2711 25.8916C17.3791 21.2528 22.3474 13.839 22.6022 13.4869C22.3762 13.5083 22.1487 13.5083 21.9227 13.4869C20.3783 13.5576 19.0628 12.4037 18.9715 10.8983C18.9679 10.5625 19.0404 10.2302 19.1838 9.92495C18.4825 10.4006 18.0441 11.1641 17.9948 11.9959C17.9568 13.2582 18.851 14.3659 20.118 14.6259C18.8293 16.7111 18.498 19.2284 19.205 21.5634C20.5214 25.8295 25.5746 26.5543 28.5896 29.6193C32.475 33.4919 32.0929 36.3911 31.9442 37.0745C38.6273 33.9358 42.924 27.389 43.0486 20.1552C42.8638 12.6132 38.1719 5.87416 31.0525 2.92529Z" fill="#AFB0AF"/>
<path d="M79.9724 20.8059C79.9724 25.9436 84.8296 29.194 92.5885 29.194C94.5761 29.1859 96.5496 28.8602 98.4339 28.2294V25.3774C96.8013 25.9925 95.0697 26.3052 93.3244 26.3001C90.4648 26.3001 86.2594 24.9161 86.2594 20.5333C86.2594 17.0732 88.8247 14.7035 92.9459 14.7035C94.8516 14.6855 96.7337 15.1242 98.4339 15.9827V13.1307C96.5121 12.4159 94.4708 12.0742 92.4203 12.1242C84.8717 12.1242 79.9724 15.4375 79.9724 20.8059Z" fill="#AFB0AF"/>
<path d="M62.6122 20.9984C65.1265 20.1811 66.9913 18.5046 66.9913 16.4929C67.0554 14.7973 65.9858 13.2655 64.3722 12.7418C62.6403 12.2301 60.8311 12.0314 59.0294 12.155H49.6428V28.9196H55.7399V14.523H57.1228C59.3856 14.523 60.7056 15.3612 60.7056 17.1425C60.7056 19.8667 56.6199 21.3336 56.6199 21.3336C57.8881 23.2519 59.2883 25.0795 60.8104 26.8031C62.1195 28.4614 64.174 29.3511 66.2789 29.1711C67.7728 29.1702 69.2645 29.0582 70.7417 28.8358C67.7485 26.5343 65.0217 23.9055 62.6122 20.9984Z" fill="#AFB0AF"/>
<path d="M77.3348 12.1194H72.0601V29.194H77.3348V12.1194Z" fill="#AFB0AF"/>
<path d="M118.745 12.1262C117.671 12.1804 116.845 13.1044 116.898 14.1899C116.952 15.2755 117.866 16.1115 118.939 16.0572H119.134C120.178 15.9336 120.936 14.9933 120.844 13.9344C120.805 13.4125 120.561 12.9281 120.167 12.5887C119.773 12.2492 119.261 12.0827 118.745 12.1262ZM119.114 15.7034C118.684 15.7531 118.251 15.6278 117.912 15.355C117.573 15.0822 117.355 14.6843 117.306 14.2489C117.226 13.342 117.871 12.5338 118.764 12.421H118.939C119.774 12.4251 120.474 13.0574 120.572 13.8951C120.663 14.8013 120.01 15.6104 119.114 15.7034Z" fill="#AFB0AF"/>
</svg>
